<svg
   width="1000px"
   height="1000px"
   viewBox="450 450 100 100"
   version="1.1"
   id="svg5"
   xml:space="preserve"
   inkscape:export-filename="logo_wek.png"
   inkscape:export-xdpi="181.42857"
   inkscape:export-ydpi="181.42857"
   xmlns:inkscape="http://www.inkscape.org/namespaces/inkscape"
   xmlns:sodipodi="http://sodipodi.sourceforge.net/DTD/sodipodi-0.dtd"
   xmlns="http://www.w3.org/2000/svg"
   xmlns:svg="http://www.w3.org/2000/svg">
   <path
       style="fill:#000000;stroke-width:0.264583"
       d="m 88.334929,246.61121 c -2.819702,-0.2417 -9.178153,-1.16949 -10.715626,-1.56357 -0.509323,-0.13055 -2.235729,-0.54927 -3.836458,-0.93049 C 53.303732,239.23996 34.789634,226.25922 23.048841,208.54616 15.962569,197.85527 11.6431,186.56433 9.5866904,173.35658 c -0.694706,-4.46191 -1.000768,-18.45385 -0.513204,-23.46173 0.921469,-9.46461 3.2934986,-18.6078 6.9551226,-26.8091 11.768918,-26.360044 35.313393,-44.623304 64.104236,-49.725164 10.781848,-1.91059 24.227345,-1.90846 35.013315,0.006 27.88177,4.94772 51.06996,22.37833 62.9749,47.338354 4.09056,8.5763 6.43117,16.61651 7.89494,27.1198 0.74467,5.34336 0.66879,18.61521 -0.13841,24.20937 -1.43779,9.96443 -3.69498,17.64703 -7.59773,25.85976 -10.64621,22.40328 -30.30234,38.84875 -54.63604,45.71171 -4.95992,1.39887 -11.67746,2.57817 -17.26549,3.03105 -3.93195,0.31866 -14.200307,0.30445 -18.043401,-0.025 z m 15.345831,-4.46124 c 10.73427,-0.83388 18.54807,-2.59135 27.38438,-6.15926 18.77363,-7.5804 33.44094,-21.25955 42.33528,-39.48309 4.46527,-9.14887 7.03914,-18.3816 7.92917,-28.44271 0.34767,-3.93015 0.34573,-13.30088 -0.004,-17.19791 -3.03482,-33.86527 -26.1506,-61.683314 -58.99527,-70.996764 -6.11123,-1.73291 -12.05307,-2.68876 -19.48697,-3.13483 -21.008049,-1.26058 -41.12704,4.57704 -57.085995,16.56378 -14.368662,10.792274 -24.879182,26.439374 -29.427835,43.809474 -4.09806,15.64941 -3.523491,34.78122 1.489882,49.60938 7.63189,22.57302 24.310322,40.32681 46.266916,49.25004 11.988975,4.87236 26.761544,7.1788 39.594442,6.18189 z M 39.873873,189.83971 c 0.158372,-8.0411 0.930063,-31.36426 1.397421,-42.23495 0.124473,-2.89522 0.287186,-4.29539 0.527031,-4.53524 0.382993,-0.38299 4.111842,-1.99211 4.616368,-1.99211 0.219766,0 0.267079,0.30563 0.153599,0.99219 -0.0902,0.5457 -0.166063,1.40891 -0.168585,1.91823 -0.0037,0.73734 -0.157133,1.0128 -0.753197,1.35181 l -0.748615,0.42577 -0.177996,7.64402 c -0.200853,8.62578 -0.53594,18.94593 -0.99787,30.73309 -0.172601,4.40431 -0.258041,8.06361 -0.189863,8.13178 0.06818,0.0682 1.119185,-0.29577 2.335573,-0.80878 16.174635,-6.8216 35.859162,-7.0856 47.291827,-0.63426 0.76178,0.42986 1.450533,0.78157 1.530562,0.78157 0.282048,0 -1.617189,-1.51963 -3.709366,-2.96795 -6.427666,-4.4496 -12.61604,-7.12941 -18.471481,-7.99885 -7.281847,-1.08126 -13.72126,-0.0179 -21.612895,3.56907 -1.527969,0.6945 -2.819583,1.22251 -2.870253,1.17334 -0.120528,-0.11694 0.432887,-22.59664 0.748903,-30.4204 0.135189,-3.34698 0.3776,-10.07401 0.538689,-14.94896 0.161089,-4.87495 0.34267,-9.10167 0.403513,-9.39271 0.07122,-0.34067 0.613543,-0.74525 1.522484,-1.13579 1.72307,-0.74035 3.891437,-1.40784 4.119198,-1.26803 0.09222,0.0566 0.127524,0.89365 0.07845,1.86007 l -0.08923,1.75713 -1.012018,0.40493 -1.012018,0.40493 -0.147357,2.42796 c -0.08105,1.33538 -0.270687,7.19047 -0.421423,13.0113 -0.150738,5.82083 -0.472143,15.25631 -0.714235,20.96772 -0.242091,5.71142 -0.361386,10.46317 -0.265101,10.55946 0.09629,0.0963 1.217686,-0.14315 2.492002,-0.53208 3.839863,-1.17193 5.836044,-1.5104 9.87969,-1.67516 9.609079,-0.39154 17.478648,2.49154 26.303912,9.63667 2.365346,1.91503 6.817406,6.15485 6.462956,6.15485 -0.0761,0 -1.089879,-0.46638 -2.252808,-1.0364 -2.560206,-1.2549 -5.437365,-2.20377 -8.972648,-2.95913 -3.278238,-0.70043 -12.185473,-0.99561 -16.102698,-0.53363 -10.207051,1.20378 -19.715174,4.22457 -27.530476,8.74659 l -2.358173,1.36446 z m 114.474597,8.16047 c -4.96886,-3.11472 -12.52419,-6.16041 -19.05409,-7.68105 -6.48225,-1.50953 -8.51391,-1.73433 -15.73862,-1.7414 -6.12361,-0.006 -7.18429,0.058 -9.65729,0.58304 -3.49392,0.74174 -6.44994,1.70337 -8.99583,2.92647 -1.091412,0.52434 -2.103442,1.00314 -2.248962,1.064 -0.66355,0.27753 3.976012,-4.18375 6.350002,-6.10599 4.91423,-3.9791 9.01029,-6.31695 13.98202,-7.98036 4.24764,-1.42114 7.17948,-1.82118 12.07944,-1.64819 4.25739,0.1503 6.20038,0.47034 10.12214,1.66727 1.27432,0.38893 2.39419,0.62989 2.4886,0.53548 0.0944,-0.0944 -0.0249,-4.78664 -0.26512,-10.42716 -0.24023,-5.64053 -0.55953,-14.95847 -0.70954,-20.70654 -0.15002,-5.74808 -0.34007,-11.66286 -0.42233,-13.14396 l -0.14957,-2.69292 -1.03417,-0.4138 c -1.02462,-0.40996 -1.03418,-0.42706 -1.03418,-1.8495 0,-0.78964 -0.0795,-1.64292 -0.1767,-1.89618 -0.15226,-0.3968 -0.0601,-0.43716 0.66628,-0.29187 1.72725,0.34544 4.83541,1.82024 5.04811,2.39528 0.11448,0.3095 0.28892,2.88446 0.38765,5.72211 0.0987,2.83766 0.35103,9.7627 0.56067,15.38899 0.44242,11.87354 1.00548,33.56398 0.87467,33.69478 -0.0492,0.0492 -0.68369,-0.20122 -1.40997,-0.5565 -13.04124,-6.37955 -24.73629,-6.10245 -36.87088,0.87359 -2.99975,1.72452 -7.08995,4.52672 -7.84129,5.37206 -0.45889,0.51631 -0.3359,0.48691 0.92605,-0.22138 5.57091,-3.12678 12.42491,-4.62814 21.16666,-4.63652 9.97736,-0.01 18.19909,1.76495 28.28597,6.10502 0.31572,0.13585 0.34457,-0.50119 0.18946,-4.18354 -0.36596,-8.68774 -0.95962,-26.75612 -1.13279,-34.47737 l -0.17738,-7.90857 -0.74866,-0.4258 c -0.52081,-0.2962 -0.74918,-0.63601 -0.75034,-1.11648 -7.9e-4,-0.37987 -0.0774,-1.24307 -0.16993,-1.91822 -0.12033,-0.87792 -0.0769,-1.22756 0.15255,-1.22756 0.17644,0 1.32515,0.43147 2.55269,0.95881 1.6495,0.70862 2.26129,1.1056 2.34459,1.52135 0.37282,1.86087 2.02527,55.20855 1.70963,55.19398 -0.0599,-0.003 -0.64469,-0.34088 -1.29954,-0.75137 z m -54.880842,-7.97963 c 3.519732,-7.23225 9.406712,-13.8586 16.309572,-18.35793 5.03803,-3.28383 11.54738,-5.48064 17.14002,-5.78451 l 1.7198,-0.0934 -0.0633,-4.21768 c -0.0348,-2.31973 -0.30271,-10.87984 -0.59531,-19.02245 -0.2926,-8.14262 -0.532,-16.31155 -0.532,-18.15318 0,-1.84163 -0.0771,-3.91077 -0.17129,-4.5981 l -0.17129,-1.24968 -0.95319,0.17227 c -1.71575,0.31009 -5.66807,1.76566 -8.09694,2.98196 -10.53152,5.27382 -20.14281,15.13575 -24.566252,25.20686 -1.39084,3.1666 -1.62776,2.75669 -0.41207,-0.71294 2.321202,-6.62483 5.776942,-12.0849 11.290092,-17.83832 6.9496,-7.25246 15.4729,-12.29097 23.01739,-13.60662 3.43602,-0.59919 3.16576,-0.76536 3.34275,2.05511 0.31454,5.01232 0.70723,15.27182 1.08106,28.24427 0.21177,7.3488 0.46081,15.83201 0.55342,18.85156 l 0.16837,5.49011 h -3.82928 c -4.49054,0 -7.42585,0.4492 -11.21701,1.71657 -9.09229,3.03953 -17.12297,9.48313 -23.33389,18.72249 -0.758132,1.12779 -1.424742,2.05052 -1.481362,2.05052 -0.0566,0 0.30371,-0.83558 0.80073,-1.85686 z m -4.451623,-0.59053 C 90.28255,182.46828 84.462923,177.11119 77.880431,173.65636 72.078081,170.611 67.169632,169.38783 60.751242,169.38783 h -3.834159 l 0.172275,-5.88698 c 0.956305,-32.67852 1.264002,-41.4809 1.641669,-46.96354 0.173251,-2.51511 -0.08845,-2.37657 3.352384,-1.7747 13.363753,2.33761 28.581767,15.94125 33.877365,30.28355 0.510442,1.38245 1.004622,2.98979 1.098192,3.57188 0.14589,0.90763 0.0422,0.77577 -0.728511,-0.92604 -1.495962,-3.30346 -2.581778,-5.32967 -3.915706,-7.30699 -5.943817,-8.81069 -15.691303,-16.89276 -24.37133,-20.20733 -2.09786,-0.8011 -5.503889,-1.67953 -5.710619,-1.4728 -0.0998,0.0998 -0.216193,1.87046 -0.258664,3.9348 -0.109874,5.34069 -1.126244,35.08346 -1.342779,39.29465 -0.116949,2.27446 -0.08674,3.59367 0.08507,3.71527 0.146526,0.10371 0.980786,0.2191 1.853912,0.25642 10.880754,0.46504 23.095122,8.03209 30.091163,18.64206 2.021089,3.06512 4.181854,7.06475 3.816674,7.06475 -0.0429,0 -0.745898,-0.98227 -1.562177,-2.18281 z"
       id="path179" />
</svg>